<?xml version="1.0" standalone="no"?>
<!DOCTYPE svg PUBLIC "-//W3C//DTD SVG 20010904//EN"
 "http://www.w3.org/TR/2001/REC-SVG-20010904/DTD/svg10.dtd">
<svg version="1.0" xmlns="http://www.w3.org/2000/svg"
 width="512.000000pt" height="512.000000pt" viewBox="0 0 512.000000 512.000000"
 preserveAspectRatio="xMidYMid meet">
<metadata>
Created by potrace 1.14, written by Peter Selinger 2001-2017
</metadata>
<g transform="translate(0.000000,512.000000) scale(0.100000,-0.100000)"
fill="#000000" stroke="none">
<path d="M1567 4864 c-1 -1 -31 -4 -67 -7 -212 -19 -462 -120 -620 -250 -69
-58 -210 -200 -210 -212 0 -13 -28 -34 -35 -27 -5 4 -5 2 -2 -5 9 -15 -53
-114 -66 -106 -6 3 -7 1 -3 -5 4 -6 -6 -37 -22 -69 -40 -78 -90 -236 -95 -295
-1 -10 -4 -18 -7 -18 -3 0 -7 -33 -9 -73 -5 -115 -6 -121 -14 -134 -5 -8 -4
-13 3 -13 8 0 7 -6 -1 -21 -7 -15 -8 -19 0 -15 12 8 9 -43 -4 -64 -5 -9 -4
-11 3 -6 15 9 15 1 1 -26 -7 -14 -8 -18 0 -14 11 7 7 -66 -5 -86 -4 -6 -3 -8
3 -5 5 3 9 -17 9 -53 -1 -36 -5 -56 -11 -52 -5 3 -4 -1 3 -10 9 -12 10 -18 2
-23 -8 -5 -8 -11 -1 -19 7 -9 7 -17 -2 -26 -9 -10 -9 -11 1 -6 14 9 17 -10 2
-19 -6 -4 -7 -12 -3 -18 10 -16 10 -68 0 -90 -4 -9 -4 -23 0 -30 11 -17 10
-41 -2 -49 -7 -5 -6 -8 0 -8 12 0 13 -79 2 -97 -3 -5 -3 -13 1 -17 4 -4 7 -34
8 -67 0 -33 -3 -53 -8 -46 -6 9 -8 9 -8 0 0 -6 5 -15 10 -18 8 -5 7 -11 -1
-21 -9 -11 -9 -14 1 -14 9 0 9 -4 -1 -17 -8 -10 -9 -14 -2 -10 8 5 11 -4 8
-33 -2 -22 -7 -45 -11 -51 -4 -7 -3 -9 3 -6 5 3 9 -17 9 -53 -1 -36 -5 -56
-11 -52 -5 3 -4 -1 3 -10 9 -12 10 -18 2 -23 -8 -5 -8 -10 0 -20 8 -10 8 -15
0 -20 -8 -5 -8 -10 0 -20 8 -9 8 -15 0 -20 -6 -4 -7 -12 0 -24 6 -12 5 -22 -2
-29 -8 -8 -8 -12 -2 -12 12 0 11 -61 0 -79 -4 -6 -4 -16 0 -23 4 -6 8 -36 9
-65 1 -30 -2 -48 -7 -41 -5 10 -8 10 -8 1 0 -6 4 -14 10 -18 6 -4 6 -15 0 -31
-6 -14 -6 -23 -2 -20 10 6 9 -85 -1 -101 -4 -7 -3 -15 3 -18 8 -5 8 -11 0 -20
-8 -10 -8 -15 0 -20 8 -5 8 -11 1 -19 -6 -7 -8 -16 -3 -20 11 -12 10 -100 -2
-115 -8 -11 -8 -13 1 -7 10 5 13 -5 14 -41 1 -26 2 -61 3 -78 1 -20 -3 -29
-12 -27 -8 1 -11 -2 -7 -7 3 -6 12 -8 20 -4 11 3 15 -2 16 -18 0 -13 3 -33 5
-44 3 -11 6 -29 7 -40 1 -11 6 -23 11 -26 5 -4 9 -20 10 -37 0 -17 5 -28 10
-24 5 3 7 -5 4 -16 -4 -12 -3 -20 1 -18 6 4 33 -56 34 -74 0 -3 7 -11 14 -18
7 -8 11 -18 8 -23 -4 -5 -3 -9 2 -9 4 0 19 -21 33 -48 13 -26 31 -51 38 -56
12 -7 12 -10 1 -17 -11 -7 -11 -9 2 -9 16 0 34 -26 31 -42 -1 -5 4 -7 11 -5 7
1 11 -8 10 -23 -1 -14 1 -19 3 -12 7 14 24 16 24 2 0 -5 31 -40 70 -78 57 -56
67 -71 57 -82 -10 -12 -9 -12 6 0 11 8 21 10 25 4 12 -16 80 -64 91 -64 6 0
11 -3 11 -8 0 -4 16 -16 35 -26 19 -10 32 -23 28 -28 -3 -6 3 -7 16 -3 16 5
23 1 30 -17 6 -13 10 -17 10 -9 1 11 4 11 16 1 8 -7 15 -9 15 -4 0 5 5 2 10
-6 7 -11 3 -18 -13 -28 l-22 -13 24 7 c17 4 21 3 16 -6 -5 -9 -4 -11 4 -6 6 4
9 11 6 16 -11 18 17 21 37 3 12 -10 18 -12 14 -6 -5 9 -2 11 8 7 9 -3 13 -11
9 -17 -4 -7 0 -8 11 -4 10 4 23 4 29 0 7 -4 17 -9 22 -10 6 -1 28 -7 50 -13
22 -6 58 -13 80 -15 22 -3 41 -9 43 -15 2 -5 8 -10 13 -10 6 0 8 4 5 9 -4 5 2
8 11 7 9 -2 19 -8 21 -15 2 -6 -2 -10 -10 -9 -8 2 -13 -7 -14 -24 -1 -16 3
-28 8 -28 4 0 5 12 2 26 -5 19 -4 25 5 20 6 -4 13 -1 16 6 4 11 40 13 163 13
86 0 163 -4 170 -8 7 -5 12 -3 12 4 0 8 5 7 17 -2 9 -8 14 -9 11 -4 -7 12 660
14 680 2 7 -5 12 -3 12 4 0 8 5 7 17 -2 9 -8 14 -9 11 -4 -7 12 181 13 200 1
7 -4 12 -2 12 5 0 8 5 7 17 -2 9 -8 14 -9 11 -4 -8 13 187 14 199 1 4 -5 3 -6
-4 -2 -9 5 -11 2 -6 -10 5 -14 7 -14 17 5 10 17 14 19 25 9 8 -7 11 -8 8 -3
-3 6 32 10 96 9 95 0 102 -1 99 -20 -2 -16 -1 -16 11 4 10 18 15 20 26 10 8
-7 11 -8 8 -3 -3 6 49 11 146 12 84 1 168 4 187 7 19 3 54 7 77 8 23 0 40 4
38 8 -3 4 14 11 38 15 23 4 48 9 55 11 6 2 18 5 25 7 6 1 18 6 25 10 6 5 12 5
12 2 0 -4 8 1 17 11 16 15 17 15 24 -2 7 -17 8 -16 8 5 1 19 4 21 15 12 11 -9
16 -9 22 0 5 8 3 10 -7 5 -8 -4 -5 -1 5 8 10 8 23 13 27 10 5 -3 9 -2 9 3 0 4
21 19 48 33 26 13 63 36 83 52 28 21 38 25 48 15 10 -9 11 -9 6 4 -7 18 29 54
45 44 6 -3 9 -3 8 2 -2 4 8 19 21 32 19 19 25 21 33 10 7 -11 8 -10 4 4 -4 13
5 29 28 52 19 18 37 31 40 27 3 -3 6 2 6 11 0 9 8 25 18 35 9 10 35 44 57 77
22 33 43 62 46 65 3 3 8 13 12 23 4 10 11 16 16 12 5 -3 13 0 17 6 4 8 3 9 -4
5 -7 -4 -12 -1 -12 8 0 9 5 16 11 16 5 0 7 5 3 11 -3 6 -2 14 3 18 11 7 53
108 53 127 0 8 5 14 11 14 5 0 7 5 4 10 -3 6 -3 16 1 22 5 7 9 19 9 28 4 45
18 80 28 74 9 -5 9 -4 1 5 -14 16 -6 63 10 54 8 -5 8 -3 0 8 -6 8 -9 23 -7 34
2 11 5 61 6 112 1 50 6 89 10 86 5 -3 4 4 -2 15 -8 15 -8 23 0 28 8 5 8 9 -1
14 -9 6 -9 12 0 30 7 12 8 20 3 17 -5 -3 -9 12 -9 33 0 23 3 34 8 27 6 -9 8
-9 8 0 0 6 -5 15 -10 18 -8 5 -7 11 1 21 9 11 9 14 -1 14 -9 0 -10 3 -1 13 6
8 8 17 4 21 -12 11 -10 195 2 188 6 -3 4 1 -3 10 -9 12 -10 18 -2 23 8 5 8 10
0 20 -8 10 -8 15 0 20 8 5 8 11 1 19 -7 9 -7 16 1 24 8 8 8 15 0 25 -9 10 -9
16 0 25 9 9 9 12 -1 12 -10 0 -11 3 -3 13 7 8 7 18 2 27 -6 10 -4 23 7 40 13
19 13 22 2 13 -13 -10 -15 -4 -15 47 0 33 4 54 8 47 6 -9 8 -9 8 0 0 6 -5 15
-10 18 -8 5 -7 11 1 21 9 11 9 14 -1 14 -9 0 -9 4 1 17 8 10 9 14 2 10 -8 -5
-11 4 -8 33 2 22 7 45 11 51 4 7 3 9 -3 6 -5 -3 -9 17 -9 53 1 36 5 56 11 52
6 -3 4 1 -3 10 -9 12 -10 18 -2 23 8 5 8 10 0 20 -8 10 -8 15 0 20 8 5 8 10 0
20 -8 9 -8 15 0 20 6 4 7 12 0 24 -6 12 -5 22 2 29 8 8 8 12 2 12 -15 0 -9 67
7 88 12 15 12 16 -2 5 -14 -11 -15 -6 -15 41 1 30 5 52 9 49 5 -3 4 3 -2 14
-7 14 -7 23 1 31 9 9 9 12 -1 12 -10 0 -11 3 -2 14 9 10 9 16 1 21 -8 5 -7 11
2 23 10 12 10 14 1 8 -15 -8 -17 3 -3 24 5 9 5 19 -1 27 -7 8 -7 19 1 34 8 14
8 19 1 15 -15 -10 -14 7 1 22 9 9 9 12 0 12 -7 0 -12 5 -12 11 0 5 4 8 8 5 5
-3 9 1 9 9 0 8 -3 12 -7 10 -3 -2 -6 25 -6 60 0 35 3 62 7 60 3 -2 6 2 6 10 0
8 -4 12 -10 8 -5 -3 -8 12 -7 33 1 22 1 41 0 44 -3 10 -8 35 -15 80 -8 56 -28
131 -50 190 -9 25 -18 50 -19 55 -1 6 -18 42 -38 82 -20 39 -35 74 -32 77 2 3
1 4 -3 1 -6 -5 -27 23 -75 100 -7 11 -21 27 -30 36 -10 9 -18 19 -18 22 0 7
-119 122 -165 159 -101 83 -260 167 -388 207 -178 55 -160 54 -1265 55 -563 1
-1024 0 -1025 0z"/>
<path d="M356 3607 c3 -10 9 -15 12 -12 3 3 0 11 -7 18 -10 9 -11 8 -5 -6z"/>
<path d="M313 2675 c0 -8 4 -12 9 -9 5 3 6 10 3 15 -9 13 -12 11 -12 -6z"/>
<path d="M416 1542 c-3 -5 1 -9 9 -9 8 0 12 4 9 9 -3 4 -7 8 -9 8 -2 0 -6 -4
-9 -8z"/>
<path d="M415 1480 c-3 -5 -1 -10 4 -10 6 0 11 5 11 10 0 6 -2 10 -4 10 -3 0
-8 -4 -11 -10z"/>
<path d="M4675 1460 c-3 -5 -1 -10 4 -10 6 0 11 5 11 10 0 6 -2 10 -4 10 -3 0
-8 -4 -11 -10z"/>
<path d="M4675 1400 c3 -5 8 -10 11 -10 2 0 4 5 4 10 0 6 -5 10 -11 10 -5 0
-7 -4 -4 -10z"/>
<path d="M455 1380 c3 -5 8 -10 11 -10 2 0 4 5 4 10 0 6 -5 10 -11 10 -5 0 -7
-4 -4 -10z"/>
<path d="M455 1340 c3 -5 8 -10 11 -10 2 0 4 5 4 10 0 6 -5 10 -11 10 -5 0 -7
-4 -4 -10z"/>
<path d="M4655 1340 c3 -5 8 -10 11 -10 2 0 4 5 4 10 0 6 -5 10 -11 10 -5 0
-7 -4 -4 -10z"/>
<path d="M490 1321 c0 -6 4 -13 10 -16 6 -3 7 1 4 9 -7 18 -14 21 -14 7z"/>
<path d="M455 1301 c-3 -5 -2 -12 3 -15 5 -3 9 1 9 9 0 17 -3 19 -12 6z"/>
<path d="M4599 1273 c-13 -16 -12 -17 4 -4 9 7 17 15 17 17 0 8 -8 3 -21 -13z"/>
<path d="M4700 1246 c0 -2 8 -10 18 -17 15 -13 16 -12 3 4 -13 16 -21 21 -21
13z"/>
<path d="M515 1220 c3 -5 8 -10 11 -10 2 0 4 5 4 10 0 6 -5 10 -11 10 -5 0 -7
-4 -4 -10z"/>
<path d="M4635 1209 c-4 -6 -5 -12 -2 -15 2 -3 7 2 10 11 7 17 1 20 -8 4z"/>
<path d="M546 1202 c-3 -5 1 -9 9 -9 8 0 12 4 9 9 -3 4 -7 8 -9 8 -2 0 -6 -4
-9 -8z"/>
<path d="M500 1160 c-9 -6 -10 -10 -3 -10 6 0 15 5 18 10 8 12 4 12 -15 0z"/>
<path d="M4556 1162 c-3 -5 1 -9 9 -9 8 0 12 4 9 9 -3 4 -7 8 -9 8 -2 0 -6 -4
-9 -8z"/>
<path d="M573 1065 c0 -8 4 -12 9 -9 5 3 6 10 3 15 -9 13 -12 11 -12 -6z"/>
<path d="M631 1047 c2 -1 13 -9 24 -17 19 -14 19 -14 6 3 -7 9 -18 17 -24 17
-6 0 -8 -1 -6 -3z"/>
<path d="M4467 1039 c7 -7 15 -10 18 -7 3 3 -2 9 -12 12 -14 6 -15 5 -6 -5z"/>
<path d="M4430 1036 c0 -2 8 -10 18 -17 15 -13 16 -12 3 4 -13 16 -21 21 -21
13z"/>
<path d="M4536 1018 c3 -5 10 -6 15 -3 13 9 11 12 -6 12 -8 0 -12 -4 -9 -9z"/>
<path d="M710 986 c0 -2 7 -7 16 -10 8 -3 12 -2 9 4 -6 10 -25 14 -25 6z"/>
<path d="M686 958 c3 -5 10 -6 15 -3 13 9 11 12 -6 12 -8 0 -12 -4 -9 -9z"/>
<path d="M4426 958 c3 -5 10 -6 15 -3 13 9 11 12 -6 12 -8 0 -12 -4 -9 -9z"/>
<path d="M4493 935 c0 -8 4 -12 9 -9 5 3 6 10 3 15 -9 13 -12 11 -12 -6z"/>
<path d="M760 920 c-9 -6 -10 -10 -3 -10 6 0 15 5 18 10 8 12 4 12 -15 0z"/>
<path d="M4356 921 c-3 -4 6 -7 19 -7 14 0 22 2 19 5 -8 8 -34 10 -38 2z"/>
<path d="M4459 928 c-5 -18 -6 -38 -1 -34 7 8 12 36 6 36 -2 0 -4 -1 -5 -2z"/>
<path d="M650 899 c0 -5 5 -7 10 -4 6 3 10 8 10 11 0 2 -4 4 -10 4 -5 0 -10
-5 -10 -11z"/>
<path d="M805 882 c-15 -11 -16 -29 0 -29 7 0 11 7 7 15 -4 11 -1 13 8 7 9 -5
11 -4 6 3 -8 14 -8 14 -21 4z"/>
<path d="M4310 878 c0 -4 4 -8 9 -8 6 0 12 4 15 8 3 5 -1 9 -9 9 -8 0 -15 -4
-15 -9z"/>
<path d="M753 867 c0 -8 6 -14 14 -14 9 0 10 4 2 14 -6 7 -12 13 -14 13 -1 0
-2 -6 -2 -13z"/>
<path d="M690 859 c0 -5 5 -7 10 -4 6 3 10 8 10 11 0 2 -4 4 -10 4 -5 0 -10
-5 -10 -11z"/>
<path d="M846 841 c-3 -5 1 -11 9 -14 9 -4 12 -1 8 9 -6 16 -10 17 -17 5z"/>
<path d="M4235 841 c-3 -5 -2 -12 3 -15 5 -3 9 1 9 9 0 17 -3 19 -12 6z"/>
<path d="M4276 835 c-11 -8 -15 -15 -9 -15 7 0 15 5 18 10 4 6 11 7 17 4 7 -4
8 -2 4 4 -9 14 -7 15 -30 -3z"/>
<path d="M806 801 c-14 -15 -15 -21 -4 -27 7 -4 10 -3 5 1 -4 5 0 17 10 27 9
10 14 18 11 18 -3 0 -13 -9 -22 -19z"/>
<path d="M901 808 c9 -7 14 -19 12 -25 -6 -18 4 -16 11 2 3 9 -3 19 -17 25
-19 10 -20 9 -6 -2z"/>
<path d="M4194 795 c-4 -8 -11 -12 -17 -8 -6 3 -7 1 -3 -5 10 -16 14 -15 26 8
6 11 8 20 5 20 -3 0 -8 -7 -11 -15z"/>
<path d="M4242 798 c-15 -15 -15 -28 0 -28 6 0 8 3 5 7 -4 3 -2 12 4 20 14 16
7 17 -9 1z"/>
<path d="M833 787 c0 -8 6 -14 14 -14 9 0 10 4 2 14 -6 7 -12 13 -14 13 -1 0
-2 -6 -2 -13z"/>
<path d="M939 788 c-6 -22 -5 -39 3 -45 7 -3 8 -1 4 5 -4 7 -1 12 8 12 9 0 16
4 16 10 0 5 -7 6 -17 3 -11 -4 -14 -3 -9 5 4 7 5 12 2 12 -3 0 -6 -1 -7 -2z"/>
<path d="M4150 776 c0 -2 8 -10 18 -17 15 -13 16 -12 3 4 -13 16 -21 21 -21
13z"/>
<path d="M995 749 c-4 -6 -5 -12 -2 -15 2 -3 7 2 10 11 7 17 1 20 -8 4z"/>
<path d="M4115 749 c-4 -6 -5 -12 -2 -15 2 -3 7 2 10 11 7 17 1 20 -8 4z"/>
<path d="M4190 756 c0 -2 8 -10 18 -17 15 -13 16 -12 3 4 -13 16 -21 21 -21
13z"/>
<path d="M4234 746 c1 -8 5 -18 8 -22 4 -3 5 1 4 10 -1 8 -5 18 -8 22 -4 3 -5
-1 -4 -10z"/>
<path d="M4135 741 c-4 -7 1 -8 12 -4 15 6 16 4 6 -8 -10 -13 -10 -16 1 -16
16 0 15 29 -1 34 -6 2 -14 -1 -18 -6z"/>
<path d="M1011 724 c0 -11 3 -14 6 -6 3 7 2 16 -1 19 -3 4 -6 -2 -5 -13z"/>
<path d="M913 715 c0 -8 4 -12 9 -9 4 3 8 9 8 15 0 5 -4 9 -8 9 -5 0 -9 -7 -9
-15z"/>
<path d="M4055 719 c-4 -6 -5 -12 -2 -15 2 -3 7 2 10 11 7 17 1 20 -8 4z"/>
<path d="M855 711 c-3 -5 -2 -12 3 -15 5 -3 9 1 9 9 0 17 -3 19 -12 6z"/>
<path d="M986 703 c-6 -14 -5 -15 5 -6 7 7 10 15 7 18 -3 3 -9 -2 -12 -12z"/>
<path d="M1035 709 c-4 -6 -5 -12 -2 -15 2 -3 7 2 10 11 7 17 1 20 -8 4z"/>
<path d="M1055 699 c-4 -6 -5 -12 -2 -15 2 -3 7 2 10 11 7 17 1 20 -8 4z"/>
<path d="M4070 701 c0 -17 21 -24 33 -12 9 9 7 10 -7 5 -13 -5 -17 -4 -12 4 4
7 2 12 -3 12 -6 0 -11 -4 -11 -9z"/>
<path d="M4017 686 c-5 -12 -3 -15 5 -10 8 5 9 1 4 -12 -5 -14 -4 -16 4 -7 8
7 9 17 3 28 -9 16 -10 16 -16 1z"/>
<path d="M1076 678 c3 -4 11 -5 19 -1 21 7 19 12 -4 10 -11 0 -18 -5 -15 -9z"/>
<path d="M4053 675 c0 -8 4 -12 9 -9 5 3 6 10 3 15 -9 13 -12 11 -12 -6z"/>
<path d="M4114 679 c-3 -6 -2 -15 3 -20 5 -5 9 -1 9 11 0 23 -2 24 -12 9z"/>
<path d="M990 676 c0 -2 8 -10 18 -17 15 -13 16 -12 3 4 -13 16 -21 21 -21 13z"/>
<path d="M1033 665 c0 -8 4 -15 9 -15 4 0 8 4 8 9 0 6 -4 12 -8 15 -5 3 -9 -1
-9 -9z"/>
<path d="M4213 665 c0 -8 4 -12 9 -9 5 3 6 10 3 15 -9 13 -12 11 -12 -6z"/>
<path d="M1156 653 c-6 -14 -5 -15 5 -6 7 7 10 15 7 18 -3 3 -9 -2 -12 -12z"/>
<path d="M966 638 c3 -5 10 -6 15 -3 13 9 11 12 -6 12 -8 0 -12 -4 -9 -9z"/>
<path d="M1085 640 c-3 -6 1 -7 9 -4 18 7 21 14 7 14 -6 0 -13 -4 -16 -10z"/>
<path d="M1180 640 c0 -6 4 -9 9 -6 5 4 12 1 14 -4 3 -6 4 -5 3 2 -3 15 -26
23 -26 8z"/>
<path d="M1240 640 c0 -5 5 -10 11 -10 5 0 7 5 4 10 -3 6 -8 10 -11 10 -2 0
-4 -4 -4 -10z"/>
<path d="M3930 638 c0 -4 4 -8 9 -8 6 0 12 4 15 8 3 5 -1 9 -9 9 -8 0 -15 -4
-15 -9z"/>
<path d="M4073 635 c0 -8 4 -12 9 -9 5 3 6 10 3 15 -9 13 -12 11 -12 -6z"/>
<path d="M4270 640 c0 -5 5 -10 11 -10 5 0 7 5 4 10 -3 6 -8 10 -11 10 -2 0
-4 -4 -4 -10z"/>
<path d="M1111 627 c-8 -10 -7 -14 4 -14 8 0 11 5 8 10 -4 6 1 8 11 4 10 -4
15 -3 11 3 -8 14 -20 12 -34 -3z"/>
<path d="M1159 623 c-6 -36 -4 -50 7 -50 10 0 11 4 4 12 -6 7 -8 20 -4 29 3 9
3 16 0 16 -3 0 -7 -3 -7 -7z"/>
<path d="M1270 620 c0 -5 5 -10 10 -10 6 0 10 5 10 10 0 6 -4 10 -10 10 -5 0
-10 -4 -10 -10z"/>
<path d="M3815 620 c3 -5 8 -10 11 -10 2 0 4 5 4 10 0 6 -5 10 -11 10 -5 0 -7
-4 -4 -10z"/>
<path d="M3848 623 c6 -2 9 -10 6 -15 -4 -7 -2 -8 5 -4 13 9 5 26 -12 25 -9 0
-8 -2 1 -6z"/>
<path d="M3879 609 c-6 -13 -7 -19 -1 -15 6 3 13 0 16 -6 3 -7 3 -2 0 11 -5
17 -3 21 6 16 9 -5 11 -4 6 3 -10 16 -14 15 -27 -9z"/>
<path d="M3955 621 c-3 -5 0 -13 6 -17 7 -4 9 -3 5 4 -3 5 0 13 6 15 9 4 10 6
1 6 -6 1 -14 -3 -18 -8z"/>
<path d="M3996 618 c3 -5 10 -6 15 -3 13 9 11 12 -6 12 -8 0 -12 -4 -9 -9z"/>
<path d="M1310 610 c-8 -5 -10 -10 -5 -10 6 0 17 5 25 10 8 5 11 10 5 10 -5 0
-17 -5 -25 -10z"/>
<path d="M3776 605 c-3 -8 -1 -15 4 -15 6 0 10 7 10 15 0 8 -2 15 -4 15 -2 0
-6 -7 -10 -15z"/>
<path d="M905 600 c-3 -6 1 -7 9 -4 18 7 21 14 7 14 -6 0 -13 -4 -16 -10z"/>
<path d="M1030 600 c0 -5 5 -10 11 -10 5 0 7 5 4 10 -3 6 -8 10 -11 10 -2 0
-4 -4 -4 -10z"/>
<path d="M1060 606 c0 -2 8 -10 18 -17 15 -13 16 -12 3 4 -13 16 -21 21 -21
13z"/>
<path d="M1230 602 c0 -5 7 -9 15 -9 8 0 15 4 15 9 0 4 -7 8 -15 8 -8 0 -15
-4 -15 -8z"/>
<path d="M1340 599 c-13 -9 -13 -10 0 -6 8 2 20 -3 26 -11 9 -13 12 -13 19 -1
5 8 5 11 0 7 -4 -4 -13 -1 -19 7 -8 11 -15 12 -26 4z"/>
<path d="M1396 595 c4 -8 8 -15 10 -15 2 0 4 7 4 15 0 8 -4 15 -10 15 -5 0 -7
-7 -4 -15z"/>
<path d="M3710 600 c-13 -8 -12 -10 3 -10 9 0 17 5 17 10 0 12 -1 12 -20 0z"/>
<path d="M1279 598 c-5 -11 -5 -69 0 -72 4 -3 6 13 6 35 0 34 -2 46 -6 37z"/>
<path d="M1430 595 c0 -5 5 -17 10 -25 5 -8 10 -10 10 -5 0 6 -5 17 -10 25 -5
8 -10 11 -10 5z"/>
<path d="M3676 587 c3 -10 9 -15 12 -12 3 3 0 11 -7 18 -10 9 -11 8 -5 -6z"/>
<path d="M3826 583 c-6 -14 -5 -15 5 -6 7 7 10 15 7 18 -3 3 -9 -2 -12 -12z"/>
<path d="M1200 580 c-9 -6 -10 -10 -3 -10 6 0 15 5 18 10 8 12 4 12 -15 0z"/>
<path d="M1533 573 c-3 -7 -9 -11 -13 -8 -5 3 -11 2 -14 -3 -2 -4 4 -9 15 -9
11 -1 19 5 19 13 0 8 4 13 9 9 5 -3 12 -2 15 3 3 5 -2 9 -10 9 -9 0 -18 -6
-21 -14z"/>
<path d="M1600 576 c7 -7 13 -7 20 0 6 6 3 10 -10 10 -13 0 -16 -4 -10 -10z"/>
<path d="M1691 583 c-1 -18 13 -23 29 -11 12 8 12 9 -2 5 -9 -3 -19 -1 -22 6
-3 9 -5 9 -5 0z"/>
<path d="M1791 583 c0 -4 4 -17 9 -28 8 -19 9 -19 9 2 1 12 -3 25 -9 28 -5 3
-10 3 -9 -2z"/>
<path d="M1902 577 c10 -8 15 -17 11 -21 -4 -4 1 -4 10 0 12 4 17 2 15 -7 -2
-7 5 -15 15 -17 9 -2 17 1 17 7 0 6 -7 7 -17 4 -11 -4 -14 -3 -9 5 4 7 -7 18
-26 27 -23 11 -28 12 -16 2z"/>
<path d="M1950 580 c0 -5 5 -10 10 -10 6 0 10 5 10 10 0 6 -4 10 -10 10 -5 0
-10 -4 -10 -10z"/>
<path d="M1983 568 c-1 -11 1 -16 5 -12 4 5 11 12 15 15 5 3 2 9 -5 12 -9 3
-14 -3 -15 -15z"/>
<path d="M2070 580 c0 -5 7 -13 16 -18 9 -5 15 -13 15 -18 -1 -5 7 -9 17 -9 9
0 22 -7 29 -15 7 -8 13 -10 13 -5 0 6 5 3 11 -5 7 -10 9 -11 7 -2 -2 8 -7 13
-12 12 -5 -1 -13 5 -18 13 -5 10 -16 13 -30 9 -12 -3 -19 -1 -15 5 3 5 -3 17
-14 26 -10 9 -19 13 -19 7z"/>
<path d="M2110 581 c0 -5 7 -11 14 -14 10 -4 13 -1 9 9 -6 15 -23 19 -23 5z"/>
<path d="M2147 579 c7 -7 15 -10 18 -7 3 3 -2 9 -12 12 -14 6 -15 5 -6 -5z"/>
<path d="M2230 580 c0 -5 7 -13 16 -18 9 -5 15 -13 14 -18 0 -5 6 -10 14 -12
9 -2 16 1 16 7 0 6 -7 7 -17 4 -9 -4 -14 -2 -10 4 3 5 -3 17 -14 26 -10 9 -19
13 -19 7z"/>
<path d="M2270 580 c0 -5 5 -10 10 -10 6 0 10 5 10 10 0 6 -4 10 -10 10 -5 0
-10 -4 -10 -10z"/>
<path d="M2303 568 c-1 -11 1 -16 5 -12 4 5 11 12 15 15 5 3 2 9 -5 12 -9 3
-14 -3 -15 -15z"/>
<path d="M2367 570 c3 -11 9 -20 15 -20 5 0 4 9 -2 20 -6 11 -12 20 -14 20 -2
0 -2 -9 1 -20z"/>
<path d="M2390 580 c0 -5 7 -13 16 -18 9 -5 15 -13 14 -18 0 -5 6 -10 14 -12
9 -2 16 1 16 7 0 6 -7 7 -17 4 -9 -4 -14 -2 -10 4 3 5 -3 17 -14 26 -10 9 -19
13 -19 7z"/>
<path d="M2430 580 c0 -5 5 -10 10 -10 6 0 10 5 10 10 0 6 -4 10 -10 10 -5 0
-10 -4 -10 -10z"/>
<path d="M2463 561 c-1 -14 1 -19 4 -11 3 8 10 18 15 21 5 3 3 9 -4 11 -9 4
-14 -3 -15 -21z"/>
<path d="M2617 579 c7 -7 15 -10 18 -7 3 3 -2 9 -12 12 -14 6 -15 5 -6 -5z"/>
<path d="M2660 575 c-6 -8 -9 -18 -6 -24 3 -5 1 -12 -4 -14 -6 -3 -5 -4 2 -2
7 1 12 8 10 15 -1 7 3 18 9 26 6 8 9 14 6 14 -2 0 -10 -7 -17 -15z"/>
<path d="M2750 581 c0 -6 4 -11 10 -11 5 0 7 -8 3 -17 -7 -20 -4 -18 17 12 8
11 10 17 6 13 -5 -4 -15 -3 -23 3 -9 9 -13 8 -13 0z"/>
<path d="M2857 579 c7 -7 15 -10 18 -7 3 3 -2 9 -12 12 -14 6 -15 5 -6 -5z"/>
<path d="M2903 579 c-6 -6 -9 -19 -5 -28 5 -14 4 -15 -14 -1 -18 14 -18 14 -5
-2 14 -19 35 -14 27 7 -2 7 1 18 7 24 6 6 9 11 6 11 -3 0 -10 -5 -16 -11z"/>
<path d="M2950 584 c0 -13 18 -39 24 -34 2 3 -2 14 -10 24 -8 11 -14 16 -14
10z"/>
<path d="M3097 579 c7 -7 15 -10 18 -7 3 3 -2 9 -12 12 -14 6 -15 5 -6 -5z"/>
<path d="M3160 575 c5 -7 7 -15 3 -18 -3 -4 -1 -7 5 -7 6 0 10 8 9 18 0 10 -7
19 -14 19 -9 0 -10 -4 -3 -12z"/>
<path d="M3210 586 c0 -2 8 -10 18 -17 15 -13 16 -12 3 4 -13 16 -21 21 -21
13z"/>
<path d="M3337 579 c7 -7 15 -10 18 -7 3 3 -2 9 -12 12 -14 6 -15 5 -6 -5z"/>
<path d="M3383 579 c-6 -6 -9 -18 -6 -27 4 -10 2 -13 -5 -8 -6 4 -16 -3 -22
-16 -11 -22 -11 -22 5 -3 9 11 19 20 23 20 4 0 7 5 7 10 0 6 4 16 8 23 10 15
5 16 -10 1z"/>
<path d="M3430 580 c0 -5 5 -10 10 -10 6 0 10 5 10 10 0 6 -4 10 -10 10 -5 0
-10 -4 -10 -10z"/>
<path d="M3520 576 c7 -7 13 -7 20 0 6 6 3 10 -10 10 -13 0 -16 -4 -10 -10z"/>
<path d="M3577 579 c7 -7 15 -10 18 -7 3 3 -2 9 -12 12 -14 6 -15 5 -6 -5z"/>
<path d="M3615 580 c-4 -7 3 -9 19 -6 19 3 26 0 29 -15 4 -16 4 -15 3 2 -1 24
-40 37 -51 19z"/>
<path d="M3735 580 c-4 -6 1 -7 11 -3 13 5 15 3 9 -7 -5 -9 -4 -11 4 -6 6 4 9
12 6 17 -8 12 -22 12 -30 -1z"/>
<path d="M3854 582 c3 -6 -2 -15 -11 -21 -10 -6 -13 -11 -7 -11 20 0 37 27 23
36 -7 4 -9 3 -5 -4z"/>
<path d="M1321 564 c0 -11 3 -14 6 -6 3 7 2 16 -1 19 -3 4 -6 -2 -5 -13z"/>
<path d="M1732 564 c-7 -8 -8 -14 -3 -14 10 0 25 19 20 25 -2 1 -10 -3 -17
-11z"/>
<path d="M1762 560 c-18 -29 -15 -38 4 -12 9 13 14 25 12 27 -2 2 -9 -5 -16
-15z"/>
<path d="M2016 563 c-8 -20 9 -40 19 -22 6 8 4 10 -5 4 -9 -5 -10 -2 -5 14 8
25 0 29 -9 4z"/>
<path d="M2050 565 c0 -8 4 -15 10 -15 5 0 7 7 4 15 -4 8 -8 15 -10 15 -2 0
-4 -7 -4 -15z"/>
<path d="M2176 563 c-8 -20 9 -40 19 -22 6 8 4 10 -5 4 -9 -5 -10 -2 -5 14 8
25 0 29 -9 4z"/>
<path d="M2210 565 c0 -8 4 -15 10 -15 5 0 7 7 4 15 -4 8 -8 15 -10 15 -2 0
-4 -7 -4 -15z"/>
<path d="M2339 570 c-5 -28 -3 -33 14 -36 9 -1 15 2 11 7 -3 5 -10 6 -16 3 -6
-4 -8 1 -3 15 3 11 4 21 1 21 -3 0 -7 -4 -7 -10z"/>
<path d="M2726 563 c-6 -14 -5 -15 5 -6 7 7 10 15 7 18 -3 3 -9 -2 -12 -12z"/>
<path d="M2997 561 c-4 -17 -3 -21 5 -13 5 5 8 16 6 23 -3 8 -7 3 -11 -10z"/>
<path d="M3201 563 c7 -12 15 -20 18 -17 3 2 -3 12 -13 22 -17 16 -18 16 -5
-5z"/>
<path d="M3493 559 c-2 -23 3 -25 10 -4 4 8 3 16 -1 19 -4 3 -9 -4 -9 -15z"/>
<path d="M3780 576 c0 -2 7 -7 16 -10 8 -3 12 -2 9 4 -6 10 -25 14 -25 6z"/>
<path d="M3939 578 c-5 -18 -6 -38 -1 -34 7 8 12 36 6 36 -2 0 -4 -1 -5 -2z"/>
<path d="M4035 571 c-3 -5 -2 -12 3 -15 5 -3 9 1 9 9 0 17 -3 19 -12 6z"/>
<path d="M1026 562 c-2 -4 4 -8 14 -8 10 0 16 4 14 8 -3 4 -9 8 -14 8 -5 0
-11 -4 -14 -8z"/>
<path d="M1380 560 c-9 -6 -10 -10 -3 -10 6 0 15 5 18 10 8 12 4 12 -15 0z"/>
<path d="M1570 555 c0 -8 2 -15 4 -15 2 0 6 7 10 15 3 8 1 15 -4 15 -6 0 -10
-7 -10 -15z"/>
<path d="M1630 560 c0 -6 6 -13 14 -16 8 -3 12 -12 9 -20 -3 -8 -3 -14 0 -14
15 0 13 29 -4 43 -10 9 -19 12 -19 7z"/>
<path d="M1666 556 c10 -8 21 -12 24 -10 5 6 -21 24 -34 24 -6 0 -1 -6 10 -14z"/>
<path d="M1860 559 c8 -5 24 -14 35 -20 18 -9 19 -9 3 4 -10 8 -16 16 -13 18
2 3 -6 6 -18 6 -17 2 -19 0 -7 -8z"/>
<path d="M2521 554 c0 -11 3 -14 6 -6 3 7 2 16 -1 19 -3 4 -6 -2 -5 -13z"/>
<path d="M2570 565 c0 -7 30 -13 34 -7 3 4 -4 9 -15 9 -10 1 -19 0 -19 -2z"/>
<path d="M2680 560 c0 -5 5 -10 11 -10 5 0 7 -5 3 -12 -4 -7 -3 -8 4 -4 6 4 9
13 5 21 -6 17 -23 20 -23 5z"/>
<path d="M2831 552 c15 -10 24 -25 22 -37 l-3 -20 9 20 c6 14 5 23 -5 31 -7 6
-12 13 -9 15 2 3 -6 6 -17 6 -21 2 -21 1 3 -15z"/>
<path d="M2920 559 c0 -5 5 -7 10 -4 6 3 10 8 10 11 0 2 -4 4 -10 4 -5 0 -10
-5 -10 -11z"/>
<path d="M3060 559 c8 -5 24 -14 35 -20 18 -9 19 -9 3 4 -10 8 -16 16 -13 18
2 3 -6 6 -18 6 -17 2 -19 0 -7 -8z"/>
<path d="M3133 556 c3 -8 2 -17 -4 -20 -5 -2 -4 -3 2 -2 15 3 21 36 7 36 -6 0
-8 -6 -5 -14z"/>
<path d="M3290 560 c0 -5 5 -10 10 -10 6 0 10 5 10 10 0 6 -4 10 -10 10 -5 0
-10 -4 -10 -10z"/>
<path d="M3327 559 c7 -7 15 -10 18 -7 3 3 -2 9 -12 12 -14 6 -15 5 -6 -5z"/>
<path d="M3406 555 c4 -8 8 -15 10 -15 2 0 4 7 4 15 0 8 -4 15 -10 15 -5 0 -7
-7 -4 -15z"/>
<path d="M3460 555 c0 -9 -6 -12 -15 -9 -8 4 -15 2 -15 -4 0 -6 7 -9 16 -8 19
3 41 36 24 36 -5 0 -10 -7 -10 -15z"/>
<path d="M3553 563 c4 -3 0 -11 -8 -17 -11 -8 -12 -15 -4 -26 9 -13 10 -13 6
2 -3 9 1 19 9 22 17 6 19 26 2 26 -6 0 -8 -3 -5 -7z"/>
<path d="M3695 559 c-4 -6 -4 -13 -1 -16 3 -4 6 -1 6 6 0 7 5 9 10 6 6 -3 10
-1 10 4 0 14 -17 14 -25 0z"/>
<path d="M3873 546 l-18 -21 24 20 c13 11 25 19 28 17 3 -2 7 -2 9 1 2 2 -3 4
-11 4 -8 0 -23 -10 -32 -21z"/>
<path d="M1346 543 c-6 -14 -5 -15 5 -6 7 7 10 15 7 18 -3 3 -9 -2 -12 -12z"/>
<path d="M1830 550 c0 -5 7 -10 16 -10 9 0 12 -5 8 -12 -4 -7 -3 -8 4 -4 16
10 15 14 -8 26 -14 7 -20 7 -20 0z"/>
<path d="M2550 550 c0 -5 7 -10 16 -10 9 0 12 -5 8 -12 -4 -7 -3 -8 4 -4 16
10 15 14 -8 26 -14 7 -20 7 -20 0z"/>
<path d="M2790 550 c0 -5 7 -10 16 -10 9 0 12 -5 8 -12 -4 -7 -3 -8 4 -4 16
10 15 14 -8 26 -14 7 -20 7 -20 0z"/>
<path d="M3255 550 c6 -10 4 -12 -8 -7 -10 3 -17 2 -17 -3 0 -13 27 -13 35 -1
3 5 0 13 -6 17 -8 5 -9 3 -4 -6z"/>
<path d="M3515 549 c-4 -6 -5 -12 -2 -15 2 -3 7 2 10 11 7 17 1 20 -8 4z"/>
<path d="M3584 545 c-18 -15 -18 -15 0 -8 13 4 17 3 12 -5 -3 -6 -1 -14 5 -18
7 -4 9 -3 5 4 -3 5 0 13 6 15 10 4 10 6 0 6 -7 1 -10 6 -7 11 9 14 2 12 -21
-5z"/>
<path d="M1095 539 c-3 -4 2 -6 10 -5 21 3 28 13 10 13 -9 0 -18 -4 -20 -8z"/>
<path d="M1187 539 c7 -7 15 -10 18 -7 3 3 -2 9 -12 12 -14 6 -15 5 -6 -5z"/>
<path d="M1307 539 c7 -7 15 -10 18 -7 3 3 -2 9 -12 12 -14 6 -15 5 -6 -5z"/>
<path d="M1552 540 c3 -8 2 -22 -3 -30 -5 -11 -2 -16 11 -16 10 0 16 5 12 11
-4 5 -7 16 -8 23 -2 8 -6 17 -10 20 -4 4 -4 0 -2 -8z"/>
<path d="M1590 540 c0 -5 7 -6 17 -3 12 5 14 3 8 -7 -5 -9 -4 -11 4 -6 6 4 9
12 6 17 -8 12 -35 12 -35 -1z"/>
<path d="M1775 541 c-6 -11 13 -26 22 -17 4 3 1 6 -6 6 -7 0 -9 5 -6 10 3 6 4
10 1 10 -3 0 -7 -4 -11 -9z"/>
<path d="M2600 528 c-10 -21 -10 -21 3 -6 8 10 18 14 22 10 5 -4 5 -1 1 6 -10
17 -14 15 -26 -10z"/>
<path d="M2934 539 c-3 -6 -1 -16 5 -22 9 -9 10 -7 5 7 -6 15 -4 17 6 11 9 -5
11 -4 6 3 -9 15 -13 15 -22 1z"/>
<path d="M3015 539 c-4 -6 -5 -12 -2 -15 2 -3 7 2 10 11 7 17 1 20 -8 4z"/>
<path d="M3048 543 c6 -2 9 -10 6 -15 -4 -7 -2 -8 5 -4 13 9 5 26 -12 25 -9 0
-8 -2 1 -6z"/>
<path d="M3631 527 c-13 -21 -12 -21 5 -5 10 10 16 20 13 22 -3 3 -11 -5 -18
-17z"/>
<path d="M3788 543 c6 -3 10 -9 6 -14 -8 -14 2 -11 14 4 8 10 6 13 -11 14 -12
0 -16 -1 -9 -4z"/>
<path d="M1982 532 c2 -8 7 -13 12 -12 5 1 13 -4 18 -12 8 -11 9 -11 6 0 -2 8
-7 13 -12 12 -5 -1 -13 4 -18 12 -8 11 -9 11 -6 0z"/>
<path d="M2060 536 c0 -2 7 -7 16 -10 8 -3 12 -2 9 4 -6 10 -25 14 -25 6z"/>
<path d="M2220 536 c0 -2 7 -7 16 -10 8 -3 12 -2 9 4 -6 10 -25 14 -25 6z"/>
<path d="M2302 532 c2 -8 7 -13 12 -12 5 1 13 -4 18 -12 8 -11 9 -11 6 0 -2 8
-7 13 -12 12 -5 -1 -13 4 -18 12 -8 11 -9 11 -6 0z"/>
<path d="M2390 533 c5 -2 8 -9 4 -14 -3 -5 0 -9 6 -9 15 0 7 23 -8 26 -7 1 -8
0 -2 -3z"/>
<path d="M2710 525 c-7 -9 -11 -17 -9 -20 3 -2 10 5 17 15 14 24 10 26 -8 5z"/>
<path d="M3277 533 c-11 -11 -8 -20 7 -20 8 0 12 6 9 14 -6 15 -7 15 -16 6z"/>
<path d="M3310 529 c0 -5 5 -7 10 -4 6 3 10 8 10 11 0 2 -4 4 -10 4 -5 0 -10
-5 -10 -11z"/>
<path d="M1399 528 c-6 -20 -6 -39 0 -42 4 -3 7 6 7 20 0 20 -4 32 -7 22z"/>
<path d="M1504 511 c0 -10 5 -18 11 -18 7 0 12 6 12 13 0 7 -5 15 -12 17 -6 3
-11 -3 -11 -12z"/>
<path d="M1690 521 c0 -4 11 -7 25 -7 14 0 25 3 25 7 0 3 -11 7 -25 7 -14 0
-25 -4 -25 -7z"/>
<path d="M1874 519 c-4 -7 -3 -9 4 -5 5 3 13 0 15 -6 4 -9 6 -10 6 -1 1 17
-16 25 -25 12z"/>
<path d="M1919 528 c-5 -18 -6 -38 -1 -34 7 8 12 36 6 36 -2 0 -4 -1 -5 -2z"/>
<path d="M2036 522 c-3 -4 4 -9 15 -9 23 -2 25 3 4 10 -8 4 -16 3 -19 -1z"/>
<path d="M2196 522 c-3 -4 4 -9 15 -9 23 -2 25 3 4 10 -8 4 -16 3 -19 -1z"/>
<path d="M2471 513 c7 -12 15 -20 18 -17 3 2 -3 12 -13 22 -17 16 -18 16 -5
-5z"/>
<path d="M2500 525 c0 -8 29 -12 39 -5 9 5 4 8 -13 8 -14 0 -26 -2 -26 -3z"/>
<path d="M2660 520 c-12 -7 -10 -9 7 -7 12 0 19 5 17 9 -6 10 -6 10 -24 -2z"/>
<path d="M2740 525 c0 -8 29 -12 39 -5 9 5 4 8 -13 8 -14 0 -26 -2 -26 -3z"/>
<path d="M2907 511 c-3 -13 -1 -18 9 -14 7 2 10 11 7 19 -7 19 -10 18 -16 -5z"/>
<path d="M3074 519 c-4 -7 -3 -9 4 -5 5 3 13 0 15 -6 4 -9 6 -10 6 -1 1 17
-16 25 -25 12z"/>
<path d="M3140 520 c-12 -7 -10 -9 7 -7 12 0 19 5 17 9 -6 10 -6 10 -24 -2z"/>
<path d="M3185 519 c-4 -6 -5 -12 -2 -15 2 -3 7 2 10 11 7 17 1 20 -8 4z"/>
<path d="M3388 513 c-4 -13 0 -19 13 -19 14 0 16 3 6 16 -6 8 -12 16 -13 18
-1 1 -4 -5 -6 -15z"/>
<path d="M3468 512 c-4 -12 1 -18 13 -18 12 0 15 4 9 12 -6 6 -7 14 -3 17 3 4
2 7 -4 7 -6 0 -13 -8 -15 -18z"/>
<path d="M3730 521 c0 -5 8 -8 18 -6 9 1 24 -2 32 -8 12 -9 13 -9 3 3 -15 16
-53 24 -53 11z"/>
<path d="M3816 513 c-6 -14 -5 -15 5 -6 7 7 10 15 7 18 -3 3 -9 -2 -12 -12z"/>
<path d="M1470 505 c-11 -13 -10 -14 4 -9 9 3 16 10 16 15 0 13 -6 11 -20 -6z"/>
<path d="M1759 515 c-1 -3 -2 -13 -3 -22 -1 -10 -5 -25 -10 -33 -7 -12 -6 -13
5 -2 11 11 22 62 12 62 -1 0 -4 -2 -4 -5z"/>
<path d="M2615 510 c-3 -6 1 -7 9 -4 18 7 21 14 7 14 -6 0 -13 -4 -16 -10z"/>
<path d="M1115 501 c-3 -5 -2 -12 3 -15 5 -3 9 1 9 9 0 17 -3 19 -12 6z"/>
<path d="M1186 502 c-3 -5 1 -9 9 -9 8 0 12 4 9 9 -3 4 -7 8 -9 8 -2 0 -6 -4
-9 -8z"/>
<path d="M1427 499 c7 -7 15 -10 18 -7 3 3 -2 9 -12 12 -14 6 -15 5 -6 -5z"/>
<path d="M1673 495 c0 -8 4 -12 9 -9 5 3 6 10 3 15 -9 13 -12 11 -12 -6z"/>
<path d="M1948 503 c7 -3 16 -2 19 1 4 3 -2 6 -13 5 -11 0 -14 -3 -6 -6z"/>
<path d="M2268 503 c7 -3 16 -2 19 1 4 3 -2 6 -13 5 -11 0 -14 -3 -6 -6z"/>
<path d="M2428 503 c7 -3 16 -2 19 1 4 3 -2 6 -13 5 -11 0 -14 -3 -6 -6z"/>
<path d="M2546 496 c5 -12 4 -17 -3 -13 -5 3 -10 -1 -10 -9 0 -13 2 -13 16 0
12 13 13 18 2 28 -10 11 -11 9 -5 -6z"/>
<path d="M2788 503 c7 -3 16 -2 19 1 4 3 -2 6 -13 5 -11 0 -14 -3 -6 -6z"/>
<path d="M3237 497 c4 -6 0 -8 -9 -5 -9 4 -15 0 -15 -8 0 -8 3 -12 5 -9 3 3
15 -3 26 -12 20 -17 20 -17 7 0 -10 12 -11 20 -2 30 8 10 7 14 -4 14 -8 0 -11
-5 -8 -10z"/>
<path d="M3313 503 c4 -3 2 -11 -3 -18 -7 -8 -6 -12 3 -12 7 0 14 9 14 19 1
10 -3 18 -9 18 -6 0 -8 -3 -5 -7z"/>
<path d="M3890 499 c0 -5 5 -7 10 -4 6 3 10 8 10 11 0 2 -4 4 -10 4 -5 0 -10
-5 -10 -11z"/>
<path d="M3936 498 c3 -4 11 -5 19 -1 21 7 19 12 -4 10 -11 0 -18 -5 -15 -9z"/>
<path d="M1979 498 c-5 -18 -6 -38 -1 -34 7 8 12 36 6 36 -2 0 -4 -1 -5 -2z"/>
<path d="M2299 498 c-5 -18 -6 -38 -1 -34 7 8 12 36 6 36 -2 0 -4 -1 -5 -2z"/>
<path d="M2457 493 c-10 -9 -9 -23 1 -23 5 0 9 7 9 15 0 17 -1 18 -10 8z"/>
<path d="M2673 485 c0 -8 4 -12 9 -9 5 3 6 10 3 15 -9 13 -12 11 -12 -6z"/>
<path d="M2815 489 c-4 -6 -5 -12 -2 -15 2 -3 7 2 10 11 7 17 1 20 -8 4z"/>
<path d="M2879 495 c-1 -3 -2 -8 -3 -12 -1 -5 -5 -15 -10 -23 -7 -12 -6 -13 4
-3 13 12 23 43 14 43 -2 0 -5 -2 -5 -5z"/>
<path d="M2955 489 c-4 -6 -5 -12 -2 -15 2 -3 7 2 10 11 7 17 1 20 -8 4z"/>
<path d="M3435 489 c-4 -6 -5 -12 -2 -15 2 -3 7 2 10 11 7 17 1 20 -8 4z"/>
<path d="M3531 487 c-8 -10 -7 -14 2 -14 8 0 14 6 14 14 0 7 -1 13 -2 13 -2 0
-8 -6 -14 -13z"/>
<path d="M1694 478 c-4 -7 -4 -10 1 -6 4 4 15 2 24 -5 14 -11 14 -10 2 6 -16
20 -18 21 -27 5z"/>
<path d="M2110 481 c0 -6 4 -13 10 -16 6 -3 7 1 4 9 -7 18 -14 21 -14 7z"/>
<path d="M2153 467 c-18 -22 -18 -22 2 -6 11 9 28 15 38 14 11 -2 16 -1 13 3
-14 13 -36 9 -53 -11z"/>
<path d="M3015 481 c3 -3 17 -6 31 -7 13 0 22 2 19 5 -3 3 -17 6 -31 7 -13 0
-22 -2 -19 -5z"/>
<path d="M3670 486 c0 -2 7 -7 16 -10 8 -3 12 -2 9 4 -6 10 -25 14 -25 6z"/>
<path d="M3817 475 c-4 -8 -3 -16 1 -19 4 -3 9 4 9 15 2 23 -3 25 -10 4z"/>
<path d="M3354 469 c-3 -6 -2 -15 3 -20 5 -5 9 -1 9 11 0 23 -2 24 -12 9z"/>
<path d="M1506 458 c3 -5 10 -6 15 -3 13 9 11 12 -6 12 -8 0 -12 -4 -9 -9z"/>
<path d="M2961 456 c-9 -11 -9 -16 1 -22 7 -4 10 -4 6 1 -4 4 -3 14 3 22 6 7
9 13 6 13 -2 0 -10 -6 -16 -14z"/>
<path d="M3469 457 c6 -8 7 -18 3 -22 -4 -5 -1 -5 6 -1 10 6 10 11 1 22 -6 8
-14 14 -16 14 -3 0 0 -6 6 -13z"/>
<path d="M3416 447 c3 -10 9 -15 12 -12 3 3 0 11 -7 18 -10 9 -11 8 -5 -6z"/>
<path d="M1625 440 c-3 -6 1 -7 9 -4 18 7 21 14 7 14 -6 0 -13 -4 -16 -10z"/>
<path d="M1660 446 c0 -2 8 -10 18 -17 15 -13 16 -12 3 4 -13 16 -21 21 -21
13z"/>
<path d="M1766 438 c3 -5 10 -6 15 -3 13 9 11 12 -6 12 -8 0 -12 -4 -9 -9z"/>
<path d="M1995 439 c-3 -4 2 -6 10 -5 21 3 28 13 10 13 -9 0 -18 -4 -20 -8z"/>
<path d="M2310 445 c0 -7 30 -13 34 -7 3 4 -4 9 -15 9 -10 1 -19 0 -19 -2z"/>
<path d="M2390 446 c0 -2 7 -7 16 -10 8 -3 12 -2 9 4 -6 10 -25 14 -25 6z"/>
<path d="M2465 440 c-3 -6 1 -7 9 -4 18 7 21 14 7 14 -6 0 -13 -4 -16 -10z"/>
<path d="M2544 442 c4 -3 14 -7 22 -8 9 -1 13 0 10 4 -4 3 -14 7 -22 8 -9 1
-13 0 -10 -4z"/>
<path d="M2726 438 c3 -5 10 -6 15 -3 13 9 11 12 -6 12 -8 0 -12 -4 -9 -9z"/>
<path d="M2890 439 c0 -5 5 -7 10 -4 6 3 10 8 10 11 0 2 -4 4 -10 4 -5 0 -10
-5 -10 -11z"/>
<path d="M2995 441 c-3 -5 -2 -12 3 -15 5 -3 9 1 9 9 0 17 -3 19 -12 6z"/>
<path d="M3584 442 c4 -3 14 -7 22 -8 9 -1 13 0 10 4 -4 3 -14 7 -22 8 -9 1
-13 0 -10 -4z"/>
<path d="M1515 430 c-4 -6 -11 -7 -17 -4 -7 4 -8 2 -4 -5 6 -9 11 -9 22 0 14
11 18 19 10 19 -3 0 -8 -5 -11 -10z"/>
<path d="M3293 425 c0 -8 4 -12 9 -9 5 3 6 10 3 15 -9 13 -12 11 -12 -6z"/>
<path d="M3333 425 c0 -8 4 -12 9 -9 5 3 6 10 3 15 -9 13 -12 11 -12 -6z"/>
<path d="M2175 420 c3 -5 8 -10 11 -10 2 0 4 5 4 10 0 6 -5 10 -11 10 -5 0 -7
-4 -4 -10z"/>
<path d="M2215 420 c3 -5 8 -10 11 -10 2 0 4 5 4 10 0 6 -5 10 -11 10 -5 0 -7
-4 -4 -10z"/>
<path d="M3055 420 c3 -5 8 -10 11 -10 2 0 4 5 4 10 0 6 -5 10 -11 10 -5 0 -7
-4 -4 -10z"/>
<path d="M3095 420 c3 -5 8 -10 11 -10 2 0 4 5 4 10 0 6 -5 10 -11 10 -5 0 -7
-4 -4 -10z"/>
<path d="M3495 420 c3 -5 8 -10 11 -10 2 0 4 5 4 10 0 6 -5 10 -11 10 -5 0 -7
-4 -4 -10z"/>
<path d="M2313 405 c0 -8 4 -12 9 -9 5 3 6 10 3 15 -9 13 -12 11 -12 -6z"/>
<path d="M2475 411 c-3 -5 -2 -12 3 -15 5 -3 9 1 9 9 0 17 -3 19 -12 6z"/>
<path d="M1915 400 c-3 -5 -1 -10 4 -10 6 0 11 5 11 10 0 6 -2 10 -4 10 -3 0
-8 -4 -11 -10z"/>
<path d="M2550 399 c0 -5 5 -7 10 -4 6 3 10 8 10 11 0 2 -4 4 -10 4 -5 0 -10
-5 -10 -11z"/>
<path d="M3636 402 c-3 -5 1 -9 9 -9 8 0 12 4 9 9 -3 4 -7 8 -9 8 -2 0 -6 -4
-9 -8z"/>
<path d="M1715 331 c-3 -5 -2 -12 3 -15 5 -3 9 1 9 9 0 17 -3 19 -12 6z"/>
</g>
</svg>
